#!OML:ASF F:\VICON\USERDATA\INSTALL\rory3\rory3.ASF
:FULLY-SPECIFIED
:DEGREES
511
root -1.57687 18.158 -0.0820026 164.593 -48.8072 -171.33
lowerback 18.4347 -0.499517 2.99852
upperback 0.599354 0.116769 3.81109
thorax -9.72128 -0.0825615 2.44064
lowerneck 1.8839 -15.5766 -11.6093
upperneck 3.19488 -21.5364 10.6443
head 3.03927 -10.794 4.06437
rclavicle 3.51973e-014 -4.37326e-014
rhumerus -9.4871 12.3134 -83.8032
rradius 57.8434
rwrist -5.89647
rhand -13.4512 11.6629
rfingers 7.12502
rthumb 12.6582 -17.9336
lclavicle 3.51973e-014 -4.37326e-014
lhumerus -34.9415 -17.3536 92.3223
lradius 94.3012
lwrist 7.23045
lhand -15.6153 47.146
lfingers 7.12502
lthumb 10.5713 -1003.14
rfemur 4.23985 15.4641 24.472
rtibia 20.1536
rfoot -11.5537 -0.609738
rtoes 12.9593
lfemur -2.33398 -21.6795 -3.22306
ltibia 37.0331
lfoot 0.693536 -14.2956
ltoes -20.0484
512
root -1.63755 18.1347 -0.00702422 164.832 -48.2706 -171.635
lowerback 18.4039 -0.59401 2.92196
upperback 0.559822 -0.0245809 3.78806
thorax -9.74492 -0.145959 2.49676
lowerneck 1.78022 -15.2748 -11.4613
upperneck 3.20941 -21.1142 10.5763
head 2.9918 -10.5821 4.05887
rclavicle 7.24539e-014 -2.74323e-014
rhumerus -9.53305 13.2953 -83.946
rradius 57.8257
rwrist -5.29046
rhand -14.0866 11.4467
rfingers 7.12502
rthumb 12.0456 -18.1866
lclavicle 7.24539e-014 -2.74323e-014
lhumerus -34.6376 -16.1633 92.2987
lradius 93.1879
lwrist 7.02793
lhand -15.4394 46.5954
lfingers 7.12502
lthumb 10.7409 -1003.7
rfemur 3.94543 15.7522 23.9696
rtibia 20.5768
rfoot -11.6955 -0.253677
rtoes 11.5796
lfemur -1.00772 -23.1521 -3.92232
ltibia 35.46
lfoot -0.78313 -14.819
ltoes -23.0804
513
root -1.68546 18.1071 0.056663 164.862 -47.5916 -171.603
lowerback 18.3666 -0.62706 2.82261
upperback 0.537979 -0.0827461 3.9421
thorax -9.74716 -0.16807 2.7384
lowerneck 1.38174 -15.0538 -11.2774
upperneck 3.40861 -20.7576 10.1916
head 3.01616 -10.3936 3.92217
rclavicle 7.36466e-014 7.95139e-016
rhumerus -9.48892 14.0059 -84.0226
rradius 57.7351
rwrist -4.95064
rhand -14.6811 11.1516
rfingers 7.12502
rthumb 11.4723 -18.5144
lclavicle 7.36466e-014 7.95139e-016
lhumerus -34.6337 -15.4054 92.3208
lradius 92.5965
lwrist 7.02944
lhand -15.8142 46.871
lfingers 7.12502
lthumb 10.3794 -1003.41
rfemur 3.51944 16.2231 23.8388
rtibia 21.0586
rfoot -11.7572 -0.109422
rtoes 7.21562
lfemur 0.255197 -24.127 -4.21491
ltibia 34.0805
lfoot -2.36415 -15.1781
ltoes -25.0862
514
root -1.73924 18.0772 0.146608 165.02 -46.969 -171.541
lowerback 18.0599 -0.681562 2.79135
upperback 0.644183 -0.178716 4.18235
thorax -9.45488 -0.214117 3.03423
lowerneck 0.887754 -14.9616 -11.3648
upperneck 3.46447 -20.5583 9.97234
head 3.07546 -10.2797 3.84671
rclavicle -3.21845e-014 -1.66979e-014
rhumerus -9.01291 14.6037 -83.8635
rradius 57.5166
rwrist -5.18221
rhand -14.6044 11.0864
rfingers 7.12502
rthumb 11.5463 -18.5756
lclavicle -3.21845e-014 -1.66979e-014
lhumerus -34.6352 -14.6067 92.3323
lradius 92.0043
lwrist 7.15908
lhand -17.0594 48.518
lfingers 7.12502
lthumb 9.17802 -1001.7
rfemur 2.75117 16.3437 23.5723
rtibia 21.6525
rfoot -11.7345 -0.175055
rtoes -1.60184
lfemur 1.16565 -24.7513 -4.50369
ltibia 32.9436
lfoot -3.77262 -15.0197
ltoes -27.138
515
root -1.79747 18.0518 0.236679 165.534 -46.5313 -171.875
lowerback 18.2927 -0.666065 3.30881
upperback 0.223866 -0.0177443 3.77912
thorax -10.0564 -0.157925 2.27231
lowerneck 1.23189 -15.0431 -11.2229
upperneck 3.61753 -20.7437 10.0855
head 3.08425 -10.3833 3.86635
rclavicle 7.35612e-014 -3.4191e-014
rhumerus -9.66651 13.7936 -84.2916
rradius 57.4828
rwrist -5.76842
rhand -13.5356 11.3537
rfingers 7.12502
rthumb 12.5769 -18.2477
lclavicle 7.35612e-014 -3.4191e-014
lhumerus -35.589 -15.0456 92.1367
lradius 91.6937
lwrist 7.32861
lhand -16.1043 47.4717
lfingers 7.12502
lthumb 10.0995 -1002.79
rfemur 1.91987 16.559 22.89
rtibia 22.4375
rfoot -12.0792 0.0905465
rtoes -1.80716
lfemur 1.93161 -25.1382 -5.12786
ltibia 31.968
lfoot -5.2113 -14.769
ltoes -27.7855
516
root -1.85183 18.0355 0.31846 166.177 -46.1072 -172.433
lowerback 18.3479 -0.648347 3.20182
upperback -0.0116158 -0.00101055 3.56331
thorax -10.3499 -0.142518 2.09832
lowerneck 1.30359 -14.9771 -10.8745
upperneck 3.68615 -20.6694 9.98266
head 3.03983 -10.349 3.80669
rclavicle 6.04026e-014 -1.59028e-014
rhumerus -9.98441 13.5095 -84.4731
rradius 57.3768
rwrist -6.37277
rhand -12.7795 11.5475
rfingers 7.12502
rthumb 13.3058 -18.0077
lclavicle 6.04026e-014 -1.59028e-014
lhumerus -36.2313 -15.526 92.3547
lradius 91.115
lwrist 9.40423
lhand -19.8894 51.5414
lfingers 7.12502
lthumb 6.44659 -998.577
rfemur 1.01717 17.0486 21.9695
rtibia 23.5272
rfoot -12.6332 1.18309
rtoes 7.93669
lfemur 2.68305 -25.0426 -5.88874
ltibia 30.9624
lfoot -6.86978 -14.4552
ltoes -28.7486
